# xmcd CD database file
#
# Track frame offsets:
#	150
#	12913
#	26940
#	37163
#	48023
#	61258
#	75988
#	88203
#	99460
#	109548
#	120130
#	130863
#	143740
#	155348
#	168115
#	180333
#	191283
#
# Disc length: 2718 seconds
#
# Revision: 0
# Processed by: cddbd v1.5.1PL0 Copyright (c) Steve Scherf et al.
# Submitted via: CDex 1.51
#
DISCID=c50a9c11
DTITLE=Jimmy Reed - Blues Masters: The Very Best of Jimmy Reed [Rhino #79802, 2000]
DYEAR=1953
DGENRE=Blues
TTITLE0=High and Lonesome
TTITLE1=You Don't Have to Go
TTITLE2=Ain't That Lovin' You Baby
TTITLE3=I Ain't Got You
TTITLE4=You've Got Me Dizzy
TTITLE5=Little Rain
TTITLE6=Honest I Do
TTITLE7=Odds and Ends
TTITLE8=Ends and Odds
TTITLE9=Going to New York
TTITLE10=Take Out Some Insurance
TTITLE11=Baby What You Want Me to Do
TTITLE12=Hush-Hush
TTITLE13=Big Boss Man
TTITLE14=Bright Lights Big City
TTITLE15=Oh John
TTITLE16=Shame Shame Shame
EXTD=YEAR: 1953
EXTT0=
EXTT1=
EXTT2=
EXTT3=
EXTT4=
EXTT5=
EXTT6=
EXTT7=
EXTT8=
EXTT9=
EXTT10=
EXTT11=
EXTT12=
EXTT13=
EXTT14=
EXTT15=
EXTT16=
PLAYORDER=
